name rise49.8558peak67.6521fall70.3087.mot
datacolumns 19
datarows 15
range 22.60658300000000 22.62991300000000
endheader
time	ground_force1_vx	ground_force1_vy	ground_force1_vz	ground_force1_px	ground_force1_py	ground_force1_pz	ground_force2_vx	ground_force2_vy	ground_force2_vz	ground_force2_px	ground_force2_py	ground_force2_pz	ground_torque1_x	ground_torque1_y	ground_torque1_z	ground_torque2_x	ground_torque2_y	ground_torque2_z	
22.60658300000000	10.79164600000000	698.59864900000002	41.49861700000000	0.26661100000000	0.00000000000000	0.11308500000000	0.00000000000000	0.00000000000000	0.00000000000000	0.00000000000000	0.00000000000000	0.00000000000000	0.00000000000000	19.56670900000000	0.00000000000000	0.00000000000000	0.00000000000000	0.00000000000000	
22.60824900000000	10.43312000000000	699.01315699999998	41.57867600000000	0.26602200000000	0.00000000000000	0.11306800000000	0.00000000000000	0.00000000000000	0.00000000000000	0.00000000000000	0.00000000000000	0.00000000000000	0.00000000000000	19.66409700000000	0.00000000000000	0.00000000000000	0.00000000000000	0.00000000000000	
22.60991300000000	10.06723300000000	699.47201099999995	41.66150600000000	0.26543400000000	0.00000000000000	0.11305000000000	0.00000000000000	0.00000000000000	0.00000000000000	0.00000000000000	0.00000000000000	0.00000000000000	0.00000000000000	19.76513800000000	0.00000000000000	0.00000000000000	0.00000000000000	0.00000000000000	
22.61157800000000	9.69362800000000	699.97445200000004	41.74679600000000	0.26484200000000	0.00000000000000	0.11303300000000	0.00000000000000	0.00000000000000	0.00000000000000	0.00000000000000	0.00000000000000	0.00000000000000	0.00000000000000	19.86961300000000	0.00000000000000	0.00000000000000	0.00000000000000	0.00000000000000	
22.61325200000000	9.31197800000000	700.51973999999996	41.83425400000000	0.26424600000000	0.00000000000000	0.11301500000000	0.00000000000000	0.00000000000000	0.00000000000000	0.00000000000000	0.00000000000000	0.00000000000000	0.00000000000000	19.97730700000000	0.00000000000000	0.00000000000000	0.00000000000000	0.00000000000000	
22.61491100000000	8.92197800000000	701.10715700000003	41.92360100000000	0.26364400000000	0.00000000000000	0.11299800000000	0.00000000000000	0.00000000000000	0.00000000000000	0.00000000000000	0.00000000000000	0.00000000000000	0.00000000000000	20.08800800000000	0.00000000000000	0.00000000000000	0.00000000000000	0.00000000000000	
22.61658000000000	8.52335400000000	701.73601099999996	42.01457300000000	0.26303400000000	0.00000000000000	0.11298100000000	0.00000000000000	0.00000000000000	0.00000000000000	0.00000000000000	0.00000000000000	0.00000000000000	0.00000000000000	20.20150700000000	0.00000000000000	0.00000000000000	0.00000000000000	0.00000000000000	
22.61824800000000	8.11586000000000	702.40563099999997	42.10692300000000	0.26241400000000	0.00000000000000	0.11296400000000	0.00000000000000	0.00000000000000	0.00000000000000	0.00000000000000	0.00000000000000	0.00000000000000	0.00000000000000	20.31760100000000	0.00000000000000	0.00000000000000	0.00000000000000	0.00000000000000	
22.61991000000000	7.69927800000000	703.11537799999996	42.20042100000000	0.26178200000000	0.00000000000000	0.11294700000000	0.00000000000000	0.00000000000000	0.00000000000000	0.00000000000000	0.00000000000000	0.00000000000000	0.00000000000000	20.43609300000000	0.00000000000000	0.00000000000000	0.00000000000000	0.00000000000000	
22.62158000000000	7.27342300000000	703.86463700000002	42.29485500000000	0.26113800000000	0.00000000000000	0.11293100000000	0.00000000000000	0.00000000000000	0.00000000000000	0.00000000000000	0.00000000000000	0.00000000000000	0.00000000000000	20.55678900000000	0.00000000000000	0.00000000000000	0.00000000000000	0.00000000000000	
22.62324400000000	6.83813900000000	704.65282300000001	42.39002900000000	0.26048000000000	0.00000000000000	0.11291500000000	0.00000000000000	0.00000000000000	0.00000000000000	0.00000000000000	0.00000000000000	0.00000000000000	0.00000000000000	20.67950400000000	0.00000000000000	0.00000000000000	0.00000000000000	0.00000000000000	
22.62491800000000	6.39330100000000	705.47938099999999	42.48576700000000	0.25980600000000	0.00000000000000	0.11289900000000	0.00000000000000	0.00000000000000	0.00000000000000	0.00000000000000	0.00000000000000	0.00000000000000	0.00000000000000	20.80405700000000	0.00000000000000	0.00000000000000	0.00000000000000	0.00000000000000	
22.62657800000000	5.93881800000000	706.34378200000003	42.58191200000000	0.25911500000000	0.00000000000000	0.11288400000000	0.00000000000000	0.00000000000000	0.00000000000000	0.00000000000000	0.00000000000000	0.00000000000000	0.00000000000000	20.93027400000000	0.00000000000000	0.00000000000000	0.00000000000000	0.00000000000000	
22.62824600000000	5.47463000000000	707.24552600000004	42.67832300000000	0.25840700000000	0.00000000000000	0.11287000000000	0.00000000000000	0.00000000000000	0.00000000000000	0.00000000000000	0.00000000000000	0.00000000000000	0.00000000000000	21.05798900000000	0.00000000000000	0.00000000000000	0.00000000000000	0.00000000000000	
22.62991300000000	5.00070900000000	708.18413999999996	42.77488100000000	0.25768000000000	0.00000000000000	0.11285700000000	0.00000000000000	0.00000000000000	0.00000000000000	0.00000000000000	0.00000000000000	0.00000000000000	0.00000000000000	21.18704300000000	0.00000000000000	0.00000000000000	0.00000000000000	0.00000000000000	
